<?xml version="1.0" encoding="UTF-8"?>
<svg version="1.1" xmlns="http://www.w3.org/2000/svg" width="512" height="512">
<path d="M0 0 C0.96421875 0.69351563 1.9284375 1.38703125 2.921875 2.1015625 C22.8401885 16.70488561 41.60823834 33.83433236 56 54 C56.43538086 54.59635254 56.87076172 55.19270508 57.31933594 55.80712891 C83.22264878 91.38931779 100.26353767 133.98738531 104 178 C104.16435547 179.83111328 104.16435547 179.83111328 104.33203125 181.69921875 C109.1069601 242.62731093 91.05671435 304.06946458 53 352 C52.22914063 352.97582031 51.45828125 353.95164062 50.6640625 354.95703125 C39.4126736 368.86204961 26.42906062 382.38574582 12 393 C11.38479492 393.45391113 10.76958984 393.90782227 10.13574219 394.37548828 C0.42337461 401.49897084 -9.52679388 408.05422972 -20 414 C-20.5892627 414.3398291 -21.17852539 414.6796582 -21.78564453 415.02978516 C-32.42035212 421.12717303 -43.52422354 425.72739588 -55 430 C-55.73025391 430.27585937 -56.46050781 430.55171875 -57.21289062 430.8359375 C-75.95051356 437.82578022 -96.07386745 442.31022885 -116 444 C-117.23234375 444.10957031 -118.4646875 444.21914063 -119.734375 444.33203125 C-180.67642412 449.07337325 -242.05592148 431.05397489 -290 393 C-290.96421875 392.24074219 -291.9284375 391.48148437 -292.921875 390.69921875 C-308.19468787 378.2367585 -322.53389034 364.06625804 -334 348 C-334.43538086 347.40364746 -334.87076172 346.80729492 -335.31933594 346.19287109 C-361.25185653 310.57056085 -378.18557902 268.03922408 -382 224 C-382.10957031 222.86433594 -382.21914063 221.72867187 -382.33203125 220.55859375 C-387.52239187 159.72756726 -368.93408679 97.79303189 -331 50 C-330.24074219 49.03578125 -329.48148438 48.0715625 -328.69921875 47.078125 C-316.2367585 31.80531213 -302.06625804 17.46610966 -286 6 C-285.40364746 5.56461914 -284.80729492 5.12923828 -284.19287109 4.68066406 C-203.06749317 -54.37742397 -95.93709488 -57.51833542 0 0 Z M-286.46191406 48.50878906 C-287.99314713 49.99335598 -289.53914477 51.46136238 -291.0859375 52.9296875 C-302.84487674 64.23549205 -312.37303153 77.19330026 -321 91 C-321.37866211 91.60473145 -321.75732422 92.20946289 -322.14746094 92.83251953 C-340.10954237 121.98779742 -351.01871347 157.73674547 -352 192 C-352.02578125 192.67256836 -352.0515625 193.34513672 -352.078125 194.03808594 C-353.82459885 244.00906894 -337.75109033 294.25874715 -306 333 C-305.35877197 333.79349854 -305.35877197 333.79349854 -304.70458984 334.60302734 C-267.81362666 380.15974476 -214.94321815 406.29232711 -157.26171875 413.46484375 C-154.16722906 413.75188028 -151.10657838 413.91360181 -148 414 C-147.32791504 414.02046387 -146.65583008 414.04092773 -145.96337891 414.06201172 C-107.49755023 415.08337781 -70.95704321 405.93208025 -37 388 C-36.10498779 387.53255371 -36.10498779 387.53255371 -35.19189453 387.05566406 C11.73867577 362.31402449 48.22109163 315.53569368 63.88427734 265.15576172 C67.52577137 252.63431747 70.34242244 239.93822921 72 227 C72.0942627 226.29133789 72.18852539 225.58267578 72.28564453 224.85253906 C73.24062372 216.71727809 73.23860638 208.55441506 73.25 200.375 C73.25233643 199.60997162 73.25467285 198.84494324 73.25708008 198.05673218 C73.27260277 184.53593747 72.23141343 171.35089471 70 158 C50.19424269 161.68299518 30.61162189 166.41554125 11 171 C11.06856201 171.60626221 11.13712402 172.21252441 11.20776367 172.8371582 C15.55906832 215.13869555 9.57136641 259.06175179 -18 293 C-18.68320312 293.88300781 -19.36640625 294.76601563 -20.0703125 295.67578125 C-31.03260981 309.56528699 -43.67166727 321.25311375 -59 330.125 C-63.76477205 332.95872534 -66.36611802 335.23770328 -68.9140625 340.11328125 C-72.05570572 345.57160382 -77.41806213 348.81411911 -83.34375 350.5390625 C-90.0991636 351.71132545 -97.25171276 351.56502055 -104 350.375 C-107.57611706 349.82042584 -110.67948196 350.35566098 -114.234375 350.95703125 C-122.25242616 352.15165036 -130.15808222 352.35607007 -138.25 352.3125 C-138.97433228 352.31034485 -139.69866455 352.3081897 -140.44494629 352.30596924 C-151.5563123 352.25302883 -162.18805327 351.69368528 -173 349 C-173.79132324 348.81727539 -174.58264648 348.63455078 -175.39794922 348.44628906 C-199.73805203 342.73740302 -221.12886367 331.27370464 -240 315 C-240.9796875 314.16726563 -241.959375 313.33453125 -242.96875 312.4765625 C-250.70738037 305.75117547 -256.99718611 298.29160868 -263 290 C-263.43054688 289.41234863 -263.86109375 288.82469727 -264.3046875 288.21923828 C-283.3079191 262.0106147 -292.52035281 230.64903212 -291.96362305 198.39233398 C-291.9228885 195.29536621 -292.01145599 192.96563203 -293 190 C-293.92442737 177.24290229 -292.77001243 167.15815431 -286.1796875 155.88671875 C-283.80905088 151.80339763 -281.87473594 147.5370144 -279.88989258 143.25634766 C-272.57785861 127.53871526 -264.33626871 114.15669142 -253 101 C-252.03320312 99.83210938 -252.03320312 99.83210938 -251.046875 98.640625 C-245.95306429 92.6357262 -240.20889259 87.81796658 -234 83 C-233.09636719 82.26910156 -232.19273437 81.53820312 -231.26171875 80.78515625 C-204.79464543 59.95560615 -171.47499887 49.57636292 -138 49.625 C-136.99419891 49.62631424 -136.99419891 49.62631424 -135.96807861 49.62765503 C-105.0034813 49.76001368 -74.95411557 59.17007 -49.91015625 77.6328125 C-43.26435753 82.38951915 -35.36588295 83.81517101 -27.3515625 82.59765625 C-18.86009372 80.38987437 -12.25628798 75.51796569 -7.26171875 68.3203125 C-3.16591122 60.78808441 -2.28819987 53.14803878 -4.08203125 44.8203125 C-9.34624104 28.64686796 -27.94847062 19.05761301 -42.13769531 11.68481445 C-122.09958854 -28.44348209 -222.02120476 -13.98040349 -286.46191406 48.50878906 Z M-218 109 C-218.81726563 109.66644531 -219.63453125 110.33289063 -220.4765625 111.01953125 C-232.60062479 121.24790683 -242.58288746 135.49174557 -249 150 C-249 150.66 -249 151.32 -249 152 C-247.82645424 152.88164859 -246.6089525 153.70509427 -245.375 154.5 C-238.96216562 159.16181222 -234.76754408 166.14593395 -233.24609375 173.94140625 C-232.24228761 182.33832424 -232.60685326 190.09878805 -237.546875 197.234375 C-241.70894173 202.28042051 -245.35043063 205.53150586 -252.04296875 206.390625 C-255.02888135 206.65666176 -258.00580961 206.85949592 -261 207 C-257.9026427 240.93224263 -243.33571397 271.68235016 -217.25 294.125 C-190.9370569 315.42913413 -160.4648873 324.08918139 -127 322 C-126.01 321.67 -125.02 321.34 -124 321 C-123.37398708 319.19183637 -123.37398708 319.19183637 -123.125 317 C-121.31820809 307.62260069 -116.13911124 300.80228487 -108.4375 295.3125 C-101.14696541 290.97387678 -92.62715281 290.13611527 -84.46484375 292.16015625 C-72.95988539 296.08022923 -72.95988539 296.08022923 -71 300 C-51.93546472 293.25149194 -38.17393458 271.40716509 -29.71533203 253.99926758 C-22.52899768 238.65208556 -16.71885602 222.07283047 -16 205 C-15.9484375 204.26523437 -15.896875 203.53046875 -15.84375 202.7734375 C-15.49512497 194.08686377 -17.41982327 186.95433478 -19 178 C-39.13 181.96 -59.26 185.92 -80 190 C-79.67 192.31 -79.34 194.62 -79 197 C-77.91622544 214.73638751 -82.8482124 230.06534369 -94.4375 243.5625 C-106.07533542 255.55781159 -120.88896614 260.74671866 -137.4375 261.06640625 C-156.26073998 260.36053475 -172.90958714 252.48851128 -186 239 C-195.85149781 227.91435851 -200.77863308 213.9075785 -200.2734375 199.08203125 C-198.76747522 182.10768498 -192.0218312 166.31133642 -179 155 C-163.45989249 143.57686127 -146.13224133 139.0803088 -127.0625 141.6875 C-116.43259588 143.69521798 -108.74596434 147.4528731 -101.15625 155.20703125 C-98.95478096 157.42624131 -98.95478096 157.42624131 -95 157 C-92.78170438 155.30722526 -92.78170438 155.30722526 -90.6875 153 C-89.50994141 151.76830078 -89.50994141 151.76830078 -88.30859375 150.51171875 C-85.68029418 147.65216439 -83.07532707 144.78268817 -80.55859375 141.82421875 C-79.18723531 140.21914509 -77.75415916 138.66724003 -76.3125 137.125 C-70.86812849 129.7677412 -68.73718318 122.10009234 -70 113 C-72.20174162 104.20606159 -77.12525576 97.07129186 -84.9375 92.375 C-128.5578584 70.37904415 -181.02196637 77.66707234 -218 109 Z " fill="#50A7FF" transform="translate(395,55)"/>
</svg>
